<svg width="25" height="25" viewBox="0 0 25 25" fill="none" xmlns="http://www.w3.org/2000/svg">
<circle cx="12.5" cy="12.5" r="12.5" fill="white"/>
<path d="M15.159 14.6262C14.6898 14.5333 14.2628 14.3511 13.8911 14.0859C13.7111 13.9525 13.4446 13.9751 13.2416 14.125L12.0886 14.7667C11.3327 13.9117 10.98 12.9967 10.8952 11.6679L11.904 10.743C12.1346 10.5756 12.2957 10.2956 12.3245 10.0092C12.3742 9.43437 12.5048 8.84668 12.7128 8.26309C12.8598 7.85058 12.71 7.46159 12.379 7.39607L10.9779 7.11882C10.6468 7.05331 10.2578 7.33568 10.1108 7.74819C8.39564 12.5611 10.1428 17.099 14.0053 17.8634C14.3364 17.9289 14.7254 17.6465 14.8724 17.234L15.4928 15.4932C15.6398 15.0807 15.49 14.6917 15.159 14.6262Z" fill="#FF7B5B"/>
</svg>
